<mxfile host="65bd71144e" modified="2022-10-24T11:20:29.249Z" agent="5.0 (Windows NT 10.0; Win64; x64) AppleWebKit/537.36 (KHTML, like Gecko) Code/1.72.2 Chrome/102.0.5005.167 Electron/19.0.17 Safari/537.36" version="20.5.1" etag="v2GYMvf3J9DqX7Mb8l2a" type="embed">
    <diagram id="o-bAqLTIqHKOcwImurOz" name="Gamma">
        <mxGraphModel dx="596" dy="566" grid="1" gridSize="10" guides="1" tooltips="1" connect="1" arrows="1" fold="1" page="1" pageScale="1" pageWidth="827" pageHeight="1169" math="0" shadow="0">
            <root>
                <mxCell id="0"/>
                <mxCell id="1" parent="0"/>
                <mxCell id="2" value="" style="shape=stencil(nVjbbtswDP0avxISdeVz1/1HgaZLsCwp0nSXvx81w6lFJSfo3hyLJ7yTR57Cw9v26XUzsXs7n47fN792z+ftFL5MzLvDdnPanfVpCo9TeHg5njbfTsf3w/P8+/WpSbanH8ef7R9+zzhfyeeGYvdnfuMohn8vvs7y+91hLV+o9vJMiaF8Tp18oipQXriT945KBQAhF3tApJpuA9RBMR44ShEAAknpAYXYA4DGtHaAEKmAIOmx8x0gBnIgC1F9cH1UPUWgIQqF3ukklMttQFIfepOyZhI4nTPlPnElLnG7CtDj3JtUPXlQGnpcDCBTABpqoRI6gGim822AsHVaAmVQGpIo9tWtbwTkQS5BvADUSNQPzpHrUy2CnZBBhVBxAFApDBoqciITswVArwMlGQCgqTVPuW+5VRxu5roOKlBxpKWH1wBQ4DUQxyFMyCQmN5iEek4LvAYLQJNJNaTBpIhMiuSHzDFIhHZYHKLESIPY2acAD8Zx67nBJI96TsfK4LRHxVQoDGFlkAc9dskCAtIgdmm1xIFaapUz+JBRlOqV0kBrUXtUhpZDi1fDmsZ+QHPG281+t0frsgXXKtDEz3YvNgDYi9qjddBQcQeZvdjiCkZZ69HBpIQ66D8AdliWJfnXF6n2vCmmhDdvJm8Gvq45kIeim9f44DAZSHbztkECwqp0w7AHDQODxKXLJr/QjbQUy3UGxAujWhMa0HJB571hrrKE4Trti5afNFIGNDQu3TvdaB8CeDtnGrEEgGKj2pgr4pWU+sJgTJh4SeqaewN5bzfiHXLvrD348uCI+87Bd5OBWeGrj/67vSkF8O/e3kscDD0ve/hDHG3BYCtBnUF03t7aVBzYXhZ2thIHg12z6Mtn5NkyTmyOVhXbWCJvvbpr7UHB1Eb0NpooV61xZfpEKXz2kn1XXh8+bvQvu/1+/iCwPrdfAPTV/PUgPP4F);lineShape=1;" vertex="1" parent="1">
                    <mxGeometry x="98.98490724789178" y="153.39521084833495" width="15.588222443766313" height="329.6486311758499" as="geometry"/>
                </mxCell>
                <mxCell id="3" value="" style="shape=stencil(rVjZThtBEPwav7bmnulnQv4DCROsEIyMyfH36Y01a3cPUxgpb8vS5e2jurZmN/Hm9fHuZbsJ7vV42H/f/trdHx838csmhN3z4/awO8rVJt5u4s3D/rD9dti/Pd+f/n65WyKXqx/7n8sv/D7hHMW0gIL7c7pRPaX4787XU/zT7vkiPlDS8aWRr/P4QqHq+EAFxDPVoOIzk3fzeJ8oRg3I/c77ACbWGWWpOIOKC0WnAKlSDnNAjOS9BiTyIKXkyOumpkiBAaBSCMMT/ByQEzlddMpUEhib6yy4KBp1qUiXTEqNGkhJeFaaBjBFUHQtVLx9QmpzQPPkWAMkSVBDS8RmDoEyAjQ7uIi7xK73ZAV4aoDeHMllBQiZGJCPU1+vFeAoA/JxpqYH5zMllJLMQVPDO6pgDlyHweGam9UYTxEwiZmSLtmRQ7/Pnfrn30cSI/HV8Ahup8SzrpcpoAlIfBsmAAr2bi1wHXIgj0YgjygaINuJc2o6pyjEKrhJmqiRu+bMANl01fc70zEHC2CcUtApnYV2BjDCHVdVmwGcAThiTG0265ywYAwAX6Fwjyl5YTduqyk6U8VzM131XTWvHJsMAffU8EJeRTh/S7zegSuZXXuCV66Oj70D127n4jmwwBgBEM8BTdKgMDFQQzQaJExeVBV31Wik7A5jhTEiLO9O918BrW/KZUpIw2RTTNHc3e7szVadBUCFkXfn5zQsWXsrPqwitkbrYcStQg0Th6EHlys5AFg8jOa3OHSU0uKS9BxK7RZi5sO8buvi/UBKo9OrETqM0UvWBGsY3aoAUFsXP2wAAdrb0XFLkg4dAgZPX0QJAfnGU0PBjns5lwxPqB+cfIY5BKBLfhCyWimCwS2nN12DkCWjfaCqvWeTcwzgXulObY1naGOCFaWzPX43Xo7POv5C/ScAk9AizYB4Em+8ZIMFuH7SXOMLNHrO0lQkCp2RXCfxGu97C2bxevdFb5AtHOMTHLDEa04LgQLspzlP1QbtiLPuqOZ+OpnFmw2IFOG8glZfkQkGb5DPfq/5OF4uzh+HHnZPT6dvS5f/tx+T5NbpQ1S8/Qs=);lineShape=1;" vertex="1" parent="1">
                    <mxGeometry x="74.98904268734532" y="455.1180468251948" width="394.49772289252064" height="9.89561990492075" as="geometry"/>
                </mxCell>
                <mxCell id="4" value="" style="shape=stencil(lVnZctswDPwav2IIguDx3OM/MtO08TRNOml6/X2hupRMUFpP3xxnSUPgYrGETvLm28Pd1/tTDN9eX54/3/88f3h9OMnbU4znp4f7l/OrfTrJu5O8+fj8cv/p5fn704fL31/vFuTy6cvzj2WHX5d1gYIsi2L4ffmiNYr895v3F/zj+WnAxzbiK3FDeNURXyhmhG9xxGfieoxnEhdPohYQvjm89B128ZFKGPFMWY/xQloGfG2U4zE+TfhCAvBKpY741CPcxRditz9TBftXKiMfSoX7c6A0JrQoTChHSnlcYBGhE7YHTMOCXKgmsMAYNnIoC2X0DI3qmCS1IgCHbKzIY5Y0dd7uL1BKI400UEa0q77OUiYFWRL2D50iKciSpF7nfYFUyFSZ0ipKAZRyMq0YD86C/Meu/QVCPP7CQkcgRkm9WliiKwqpEY8h2VE2cNIa/cEtCgi4pOoL2uhYUEFb1seQWLtm7i7I3ImwLjB6A2rkRGk8aavBUMCC0tm/LjAZB2wtgdipJEXwAyVOqkeCRCx1zVo1A6aoZGrj/hlKTGkUnGJQBPg6dSmTZfC8deoiCvNjmi7jAVgCQB1U7Y+34QXtX/rjrZUJ5atWr3dCCeTfep7Lf+xtdxdvPTVmh1cgFG3994YPaH/xXc2aOMiPeYiaHT6i/dXjjSAo/twlYcMjU2EeKySHj0DbzcNJcPgA6svwyh4P+GD44vdn9Lxtzg+qd8M3j1cQD4f1+bYFBfSBNhGUKYACa5NDMELgB3YHzL2PHB6AxyuOR9jjMSGcQHO3bUeEa35/QfmsXf82PKMCq939XBUMir/2DndVMDh+V/ABCpbhqzo8MoBtahgBC1Dz3inc4lvyBX8Dnyc8aGALn33B3+Bz8/snZMH3ChJ5lOUHJkLcCMgTlHHBTwQVfMDaHD7h+MWZslsF+X/46hWd4bXMbtnB4xvKj92yxwKIuIC1C/6GT2j/5OMxS4QKJlId8YLjYS+g60V8Hx/87SfBDmkOyHUwM9WAn+awNDh8RY4pd0d+5RCRA02dLlcOFDnE6B0iHqtU9g0jQ8dUJoErcP8yzSVKH2zs49U7oAoFyG4Y1c21cDzB3/PsysPgB+yO5G9hDCOyW1hxnjLCSVVmb4I4waat1pTctS2TgJA0+y7GFf9C9DZokWlAa7tvu4uD1SVq3Cn3Pr0uyKToRi/dOa8LGrRaKXThWZUiwgVS/MhNcK1J8s1VGrTrwp6syyQELIiTPUsFyqMl0ZWPMhzD2jFFp0cKG+Di0N1IrHUJP5rS1fEcrELQJYItgJGtuUJTyuJ7WsEnbRUcRxEw2WnIdk2jzAaH4aV7mlXEYvfx+xLQqb/iFe4/TRmtDaEum3yxWVv8N4E7GG7nMR5r04in4lnX8Jwh+qZpNgO5iji9vMhwwMjeJZtNKsjGkrj9Kx4ke5Oz2chd/CqeV3g0KwxefhcfD+IP3vQuthnun6d4Gij6qeavfP/BAjeJ3Hz/Ad5NwbeLyAGe65Qg+LbJzy0bnBuEidBrgzvCT/ujBruHR9eU/397dwtvH7ZXhR/Pj4+XN43X//evFu2ry2tJefcH);lineShape=1;" vertex="1" parent="1">
                    <mxGeometry x="114.79230171814254" y="190.37251782430167" width="313.78848749206975" height="269.24026416676975" as="geometry"/>
                </mxCell>
                <mxCell id="5" value="" style="shape=stencil(lVjLctswDPwaXzEEwOc5Tf8jM3EaT9M446Svvy80KlUTkjbNzZa5JgEsFksd9Ob18e7leJDw+nY5fz3+PN2/PR7000Hk9Px4vJze7NNBbw9683C+HL9czt+f7+fvL3fTyunTt/OP6R9+zbgoFNuEkvB7fsJKMj/5PAOeTs9XABVqOgDsidR9gFQKYQBEpawAoBRlAKRIkvYBXKmVAZAjaQaARDwGXZQU7CCFShwANVAsIEuFcvGAAo4Ua//5CtBkH5AD8epICFAC1XUMoHClEY+FsycKqFEbBR4BmSJI65QTV4cI01qkM2eptBUOZSn6SiemEvYBKVMeY7AO+RvVduEShbFw0jp/twHaybwAcq/MNkCIx6CtQxKoQ2SqYwwSKKAjCem4A+cuC3sx5JFLphoKuGRZSk5mGKe1UKsDoEHRSIFScesRV5NSGP+fAykiRiJxIWPdS9n32yQ7IORUOjMXQKX0DmDcQQTvkKk5gNUFUM+Cjo5JlSIqg/acLNPBCoPSupIAZRi0CaUED0Bib9QrqyMFxFX1R5rkH3WD+IElkQrI0tSgrqOZBDdoGNnNpXfgXgw8HokjnHAxUnX9gIXSGpRHGWt9Cm+vb57d1qCIetZdvqEr+H/zCE4AGBPpwwAbNS4CqxrS4cJ+NBhVGRRhmrgjLyZqAW7X4mNImHltpWI5wwHKIXj7ZlM7gfZpQmWkXjP7BvJaV06mmXSiNHGn8gIokKvmlaLjXsXzzRyl28FKAwqhxQ9EAyC/Z5Li0nqV6e1K2BbNb6Egr813dCuQfetCS/dC20miPObIzBa6OdRe1IWriRR0tFmKNBLJpDzje4A6pU/4aqLe7FlQyJWoeIer3absXpacOYQ2SWNn2cKKrgjb65fx3dcH2M1G0yBuPeKcVl8C61V0/uYNRoCdbIPQDXPGQ0S8fCm8wth65yITpKiNTXUXkvfWR9f2kNLTWHaekLvD2rUWH7qe/wfAPvx7G/BwenqaXyZc/+7fHtij+c2D3v4B);lineShape=1;" vertex="1" parent="1">
                    <mxGeometry x="34.25091343013719" y="373.50605701525524" width="33.69249551231712" height="24.249837287221" as="geometry"/>
                </mxCell>
                <mxCell id="6" value="" style="shape=stencil(7VjLbhsxDPwaXwlJ1IM6p+l/BIjTGE3jwElff19uDW4t7u4EvvWQmx+kJHKGQ0o7vnl9vHvZ71J4fTsdv+5/Hu7fHnf8aZfS4flxfzq86acd3+745uF42n85Hb8/35+/v9xNltOnb8cf0wq/zn6cqZXJK4Xf518apfb3h89n+6fD86V9odAG+6grIAeh1AeHpEvkbYcs1MLgwJEK2KF0Ehl3YKq87VAzcfYxSIQO7kgxESOHQuKyFCgk4NCodwdDL9v2LVAfQ6iUQMgtUxlhzrbAur1Qjc4+yra9JI8BUweYSaOY3PoMztOjp12hBPLTNd7k8lPBeXqz5cxeqARg3/35FeAKAohBCbDgEEqRbiHjkWLBOepGsbkOlNYVBu2SpMWaUdSaxNGhKC3QkSrxGEPVHRBuCuuYJQm2xLpDIBkLQToVVAmNZNxB0wBrOVAeS1MT3ToQMHUYa+cC/HVyiJFz3qIa+OtnouhiCFDxFtzTemUQwiKpLVnW1lEw8ZlhzqZnq/aqDsU5YH3kbrSZmadEQhrPFuCFQwIhVKVN9A4NSWT2kl0xVVu3zjo7JMvzukhGErdDgV1BUS2jCmtUjGQ4Uqoe6AZw0L4Qxh1agcLaFAe3g3Y2VG7Ndx7NWwRcqpFy8g4MelUplB27lUtowFBcx/Jp1drpugLo324HJgFpzXnhEKgA6c7L/qYdFdSDHsmpmFaI4KB9TUe4g6bVaX15Fzh23USMjlvUWJZoRiXKlMQfqQERmOgdfdAdADcVkMMB99ypRJ0IiC2xtUN39RDhpDGxfwROlaqBI7XFSK8lCnHoVF09iI1/W2LsyKeHRMBd7ZCTlfzF3AAH7rjQJZ34EFuT16VplEE7JMqOfBlOAergbkrc4CijWYqjakx9FdT0xz3m4x6zvMf4WfU/uMcUt0M14d9KkptilHUBo9bGqPmdKUask80wa2tBhZP8UJKFOiBeLr4Z5m4auD4RR/+IoS0+AirF7ofDjOdVxdVxm3U4BMU5C+jF/RPNVbJgEn5KkkVjg09V4kEuVksbdxh358HzUdQuPNI62bVv3T7bq9ccLSVUaNXmCLMPsN0ovL04e9RtNLzI19hXP+ng82g+r4qXF2M8ziezn08xXpx9w8d0uPph9F17/fDvFfbh8PR0fsS9/N+/2upP5xdfvv0D);lineShape=1;" vertex="1" parent="1">
                    <mxGeometry x="70.43059719663529" y="379.02717389987345" width="16.572353784119514" height="29.896685583370072" as="geometry"/>
                </mxCell>
                <mxCell id="7" value="" style="shape=stencil(lVdJchsxDHzNXFEkSHA5O84/XGU5UkWxXLKc5ffBREVqCI1a8U0Le4ilu4GZwsP79ultM7F7Px0P3ze/ds+n7RS+TMy71+3muDvppyk8TuHh5XDcfDsePl6fz9/fnuaT86cfh5/zE36fccLkwoxi9+f8CzOl/O+Xr2fAfve6AEQhyQMgxPaIVUBIFMsAiJUKuIErxfGGxOQLAGgAPAAyU0AhVaoGECjLbYAEcvEK4G8DUiJXLCCBG3Ki4i2AQdLzDTJWKZNnkEOhMuYw977CpMWNna6UI6ZGHQBeQ3IQEMeQPLferwMSpTGk0hqzfr5QHS+IxKjPTDyqwZOANktq+bXzjjyihf6d7XnQgqTM9iYexFOlAHuTb0LxqNSCqWcE8WRHcSSdNqyChinAJ0sJQbQulkOackEpC9WxBSxQ/GomYewBZ0qARCqcMGpZqyQJACIFsTdUkLQ4SsXmUMENMVM2AKYMxK9Kq4bYvdC3ACYH37l4S5rG8ZRbKIViLVXNAEnNW79TrSL3ipSt1OIdewzmvAPepTQyLdAAgRLUr3nMV+0V0bRcDQRoLao0Ng3zzV0/AQAR5WxZGhwUf2Fb0og5VCrxqGU1WAFNq9KEuBiCBSjNu97V7ngOX9FXic7rRAEANGsTU61tA1qvK1+ZvMPckz6HF1dUNGhT0+ICUEASQZcPtoAE5KxqyaZMpS1Z63Vt7O/nBUbkKIwpF4HPv+rzvBOiLlh70SILmDu+r2eLtRZNNvUHU9KQoeOpusymrZaHUtbnObN/eTj+Q7Gb9p0Fz9n1Qkcjoh1bPec2e9fPx6asy/k7M8fQOjeTvTVzYjXxO7QOujZiLvVBHJK+nS0a4NGmoA45FkhphSqqO7lZXrzA9woFxKvBD7f+vtB11jloX59+g/wPgH64vLC+7Pb78/vu8n/7gqs/nV+Ow+Nf);lineShape=1;" vertex="1" parent="1">
                    <mxGeometry x="147.74446528029148" y="484.6594152249727" width="24.810576789917945" height="21.821145619219124" as="geometry"/>
                </mxCell>
                <mxCell id="8" value="" style="shape=stencil(lVfLctswDPwaXTEk+AB5TtP/yEyc2lM3zjhOH39faDRyDChaJTdZWhggsAuAQ7p73T+87AYOr5fz6efuz+Hxsh/St4H58LzfnQ8XfRrS/ZDunk7n3Y/z6e35cfr98jAix6dfp9/jP/yd7CLFPhpx+De96IlkevN9wh8PzwbPweBbpi7r+EAiBi+RJCJ8svjSqTaED9Xgs1ANEG/jTxX+f6SSDZ6FGOAzBYuPnRqv47vPf0wUQD5jpeYSSjWt4/Wzc6D1Lev4pOFGGxAxiL8wJTb4a4Y/xNdK3eMbwEunlGyBiQE/W6dsCRGVgsBBL8Q2oVGoZ2DQfEQaUkeSCUvStVlGH7vQQ9si5ABd9EWVc6KCPCRqzRoUyoB3mldxIalwUCEKRVtoVWYATG2BSvceMqCqaADRnyEArormxJY6MzVwBu1VbVEHpH41KNYgCUyr8JzEq0EmAewTpattMEkViEJqvtIpUAUeWvIeuMOW3YRa9Qaop3Ymrj6kAiqtGu3iD82AS6pRRw1NK/TQqTuJyhzkmoFYA6VGQIdufjIo+QRNBiWz00OGbO06y90srJAaTQW0GJ4BVZoX07Zitio1ipdoQYrLs+RvGlnFAnJszdeVZk2i2QmoUQaH/rJB7XMXuhkQEdShaheyE0VHEBqKRUeaG3J1bm1rU90VLjaK4AyqYDcVmSmDtHLxI2vsGoAauofkheIi2mR40Yzxqvce8Sd3STVwittYVnU3qjZLG9vw0mBj3VaDZLv3uK+gM4R57l8NKtx/dD+NzgDvP8pNthLV1gYNiiefNk80gSL7LN2sUCsrlr+WbFlcBfbJmIofKBuHTv7es5FVHeIuR3i9ip7bG7z4+j1vC68P75fKp8PxON1Jb7/7S6i+mi6w6f4/);lineShape=1;" vertex="1" parent="1">
                    <mxGeometry x="178.74" y="484.17" width="21.53" height="37.83" as="geometry"/>
                </mxCell>
                <mxCell id="9" value="" style="shape=stencil(rVbbbtswDP0avxIiqetz1/1HgSaLsSwp0nRt/740DGWhFLMOsDdHORQPb0cc+OF19/SyGci9nk/H35v38fm8G/jHQDQedpvTeJavgR8HftgeT5tfp+Pb4Xn+/fI0IaevP8e/0w0fsx0GYJysyH3OJwHyfPBzxu/HwxWeCZgU3kMMy/hAEJPCEzgDnwmCxjtwzsBnQN/cH2kZXxiQFR4dkOGgJHA6YEIo3jAowEUZcITIywboLiFeakCQjCKUDEm7iBmCZSBF1VmVPHMyDLAtQyHIRtQ5tn0hJLMRdXYQszYoZtApAOlKS1ScDQPXxjCRNEodE2BQBonBG5SiENCUQgZnUJoMtAcvzXQXJYo1qpVBI0Ms96TVmwM01U33nsyPcf+U82bgAO/qPElBtFtb9xEmiNZ8dsPD4tKowY359Kmq5koJiFxPVopMkkaystTJWC6mbvc6KT4tSr0QX+XhP1n0j4OQKsbr0L8+5TJRt2vXPW/FAxphI9buvxI+a0K7vEoh0NC9UAXigmdTMqjlIwOLBh8HuWm9UJO8gG/fnlBzvA7v/Tf3N3zYV0FYF6/okZV/yae+HyMUS79aQZX3Pxv8+4ZI1eNix2m8vVB9v4DJx7/tbTvu9/Pyd/1/u+3J0bwp8uMX);lineShape=1;" vertex="1" parent="1">
                    <mxGeometry x="177.47668043193028" y="504.37979501025984" width="13.86535664543635" height="4.840385565417819" as="geometry"/>
                </mxCell>
                <mxCell id="10" value="" style="shape=stencil(lVfZbttADPwavRLLJfd6TtP/CBCnNurageNef1+qwrpaupogbzo4IocckqtJHt72T6+7KYa36+X8dffz8HzdT/JpivFw2u8uh6tdTfI4ycPL+bL7cjl/Pz0v969Ps+V89e38Y/7CrwUXmUKaUTH8Xp4wJf774PNifzycVvaSqJTBvhLXbfuUidv4/UyhbAOK0vxuBYiRWtwG1EbKA0ACBQDgYO/DiGhUQUytUh5JJKGaQEyVog6ArJQR60QyeijmQbYBWSiNHCpTAYXQ4j00hRzUPIyVboUS8CCWJRkBjSQDgBCPHFal+S8iWgTqXagCQKSUPIkC8spGwnlIFAAJk7PTa7NCAA6cfEimlgBazjwUV2qFeeXms2TaYFDqKF06N/VVKiAka/rmACYvQFqUUvOAgNR36+FVSChLqj3iG+kAC6c2uPIIECi+FHoAN0CGs3IGuA4KfS5shSSug6SP2y3Srg7NxIJIBxIXUqWKmto8OECD4zjeen4FQCFFJWYfkqL5bd9rnnQAabUGqq6nI5z3c4u6JdcoArWaBx7VWlPvwa0xow4QYYt+GCC2NUfSJcC0avIbJTPcWamQjoBkcwloqXDfHx1gS0mBNJKtUbfaG/Sg7CefpYGRWkNfH6vTRm0gJKpuZVnpQaHF9xvbnELi9gTY6ghSFPxW50ANyOLu6GPtD8K5+3zGu81Hr/3gtJWcUQ/GFezm+9zD8Vu7ert5gObMVNnZo3VgQ8KdnN+xr/4kjOP56Mn8fXu7+Pcb8HI4Hpe/iPV7/9tgj5ZfDnn8Aw==);lineShape=1;strokeColor=#33FF33;" vertex="1" parent="1">
                    <mxGeometry x="132.59199322694633" y="333.40801908931485" width="16.448351095382236" height="24.83805847496444" as="geometry"/>
                </mxCell>
                <mxCell id="11" value="" style="shape=stencil(3VjLbhsxDPwaXwlJFCXqnKb/ESBOYzSNA8d9/X25NbS1uLsT5NSiN8chzddwOLs7vnl9vHvZ71J4PZ+On/ffD/fnxx1/2KV0eH7cnw5n+7Tj2x3fPBxP+0+n49fn+8vfL3eT5fTpy/Hb9As/Ln6BQpycUvh5+UKZCv/+5uPF/unwfGUfqdbBvmaKYdteKKfBXhrFCH4/kJbBIWdSlFAlGR04Ui7bDilRbYOD/USrwEGJxwiVKiiZA2UZa6YEKmAmGXvEsEVciV0BlHXbPkfSPNiHPpR1+0LSnH1AI44+n0ApA3uhJi7/CPpT5vDdPlEB/SlMPGI6Y3uhom6+qN5SqI31Niqg3lIpunpT79hWAO8gFABCS6TGruKAMmp+Z2LumF11qJbw2CKrOYMIxgphLCGHHnPdwXZwBKkkEoBqlQ6a7lBwDU19VzVRBDXEsACeFkh2zfo6FtECRTDpVkhHqDbu4Fp3SD2B2cHAitvUXAQjYDQIJR1HfdWHdQ+7CdmHEEAwtnCp+CIqyGliALdxuZe1TjHFc3yLlMAGGSdVN+pKCUdweLXDGcEgrAZ2l9O6hJZa+iGeHeaqtpY0jkVXgXC1BHiswdYWXTaDv3cQqBYMru4U2p5X0KUJzW5JQ+e2rZUrbg5WA6KB5q+PGuKRgzGTQ2vCNbCXMG0m9PW26mKplQqawwzmq41TgKWJjnXhgFbUNMYipYxPkENrk9639QWqVBZtFSQbVh1AW7MQO/Bh1uBGYYxgOxiQcsue+exoKYAGJ9/WnLq4XHeI/fBfqVskriyl6Oi7QXX4P6jbEXh/X91mlz9St/Y85NTk2+rWQegfVLfoEL5b3doVS94B3QTRrk3nllqS6PqnfjJmjGqngi1qkXEIEvAWNP8cXGzMAKa2x9kd80IZRUieKSbphyJEL6DtDqE5GBDcc5WpW0SPyfSKc7ArARSMUYNrq1F8AxRv3Kbj4Oz4VvS2QBboxoLbwOzAN0UA+6Z+blMJYAzGngulWkDJBtUxHzUCAesWevTrKYP8l888AuXRe18gvW1vH/68rXo4PD1dXnZd/9+/3bKvLm/G+PYX);lineShape=1;strokeColor=#33FF33;" vertex="1" parent="1">
                    <mxGeometry x="157.38503481167652" y="322.28747964084664" width="13.805323955562699" height="24.1972162716537" as="geometry"/>
                </mxCell>
                <mxCell id="12" value="" style="shape=stencil(lVjZctRADPyafVVp7plnjv+gikC2CAkVwvX3tNkaY8nrXnhzNpI9klqt1pzSq6/3777cnaJ+fXl++nT34/z+5f6UXp9iPD/e3z2fX/B0Sm9O6dWHp+e7j89P3x7fX/7+8m6xXJ4+P31f3vDz4jeGhLB4Rf11+SVJaH9+eHuxfzg/bu2baDL2WTKzz1KsfZXK7KOEYeyHpHps34fUauxDlJiJQ5PsHLI0cqJeJGfrgBywLyQpNqXhRgxBuhqHGGSEY4c2pNsvoAqtEIcmvVmHJmkQh+LLhjoMkqUWfR1SlKLHDhXAK9YBie7EoUmwWUpNInPI0t2RhkQSdI0ziSu2gySS1qpSLDQyah+PHUr30MhINDlSqVLckZpUEnQBEGzQGR3CjhSk2hhKpODL3ae1FKkkhlxn1leHLikRhyTZcUaYYLnuoDPE1SHJIOBLaxJXB9ASOVICjTkHYIlkKQXv0AKFd+yTtlaHNLv8ugMq7RwqpRmQitrCgUcSITLQVrAxgKmUpBXEmCxae6TQAPVGy0tg20HQGkCMFhq9SyNZCuq/MJRCA+i2IQwMRHKi7pM6yuzx60Q5x+tq3yUTe+DSsh4mtjICkJa8fWXt7Nsf9qwC6E2bn6BKQRF99+MDnZV4V7Ahmdirp1QktJNW1pm+jX0gCVIveCCBWNfobMLVfi3hQbzqClDopI0z2/8IOMB39/5I3p8nN2/tKeDyvgFI/qtk9flR2jC+wZBPpnV2+b8hdXb4BB4IjdaJri3eSD4RnSOUMVvoIJ8avX0neEuesG43pFNqS8czCvWTDPaFAEKvMBDTy+qnDBLK5pjuGqBRDaVzUG8AxBL6//bD2fOVaKf2sfMkJlZ8g2HnaSQ/OwD1RgHafLydEwRGqlsZMeWVOQTfMh05Ji0QkpdnrVPxFMqccRstRIXHmO/bqC3WlQuN2jZrOvXXdYfqebRC/DNeH5NmN5qUDT4sWK5xsPEoCRoLltrRWrkmhUweNmgod7ZnQog7bGOBUS71nbwpiU5XLBPJrSuoA9s+UGnL78sGReiu7AQIdrTK+i35Blq2QNLQ2JeiDfrGnlnQortNNpC0luGFeAKHsV05+H5ImcK7riFu9v3O9v0qw9YBgGctigWrWB4DUzFhgQWruEuOQrG0tLwNGrOxk0q34hfTZXixL7SdWm70CgIbWbVfwIrEhk/fcWuIlGZ6nurmr16YFyvXHepuz6R6armRc+im9tivnCAPFHmLHLXn0dnhR/aOkzB8CIww7V2RdSrQoxtRNw65/IJ9G96exdv35wks3uH1kc4XHNnn5uwZxy9y1L4/0B5Y1KWvbyH53MjXtcvogrAcqDj7zA9UvD1bGP/7ivymPR7+3sd/OD88XK7zt//39/f46XL3n978Bg==);lineShape=1;strokeColor=#33FF33;" vertex="1" parent="1">
                    <mxGeometry x="117.70964427889214" y="330.1731676282117" width="78.50759458071263" height="121.73022713299679" as="geometry"/>
                </mxCell>
                <mxCell id="13" value="" style="shape=stencil(lVjZbhsxDPwavxKSSF3PafsfAeI0RtM4cNLr78utIXnJtafImw9yl8dwONKO796e7l/3uxTe3k/Hb/tfh4f3px1/2qV0eHnanw7v+mnHn3d893g87b+ejj9eHs7fX+8Xy+XT9+PP5Qm/z36BUlicUvhz/qFnkvjvly9n++fDy8o+UmJrn4iBPY9/h32rVNNt+0LB2TN1vm3fKDdrH6gUEH8kScahViooYaZq31CFGogoFmJb0hqpZeDQfc6lwZy1Cc2GVDLVDhwypWwdtGsNODQS65A7JdRmDalahwyT5kxsgZQTZQEObaQ4HKRTBp2WRMWGJIVyAA6Fim2cMAl4Qw5UxToEWNYsHq1cKYKkc6Vm0co6DsChaEg2B9ZfKnDQFG0OqZIALJXik05CEXS6hlHE6RApgD7ofCXbuNiIQQ46wd1iSWcwArQqR3QbUpTBg9cdhIIFn/JIA9BQlguOVymAIrXuWUbHB/S5M0UXEBXw/K49siVSmgRI1S2QmrOPgLa7jpZ/fkD2ugW8vYAG9DZQfMkX8VHvPh5MeGrfLeExHJvF3iJoUuzNeBxl4361sWPmEsF40L/d3sT9LWPprfAJpl7xwNXbgxWleEs+HsS9ime3oSplVB9dFt3Vk9Hzk9chAudX7cXWX4UMqk8atHzBW8Dz67bZpKRb9Wx+HhOynwS4mkdUn0os/vlofjcCQeNHz+/EdpFFnG8f6uFS/wTqH0PwhCtU8Quqk0RwA6h9dLqRBBPKx+zFE1BUiCOGU4BZRMQ8BM+tFeP2sK7VBDDaVFRaDC2LGy2x5EWgTgFi0ToV3EpLQIfiq6plRXumbkPqcJBL90TKaazC6w4agH2DStsIkFdk46BcDbh0q+lU2kaA1Vz8shSFBpKZCjVbVtXW6A3SBjZX6h0JWRGvGvV8EECnJY55nw4VKl8tomO8pW4AGjwJYjoI3Gl6xnE7UHuPzsq686J1WLQwyEFFRHRbkIduuO6QvFTWCcmIJxXe7nDaoVSO1YfUJvFcdxBi56C7C4UUN9KlQuZrfpX0CNE9T33TXrkWAEOljsWFLke0q/JAzbRv8ApCD4FOSnXIw7I5SnRI9LyRah1fJ1BxR4mAxULaJNyHOrlxZyTR22eQQBjSbGWP2Ch4rbaoExBPGFS1ajDSChtpoeqqw+eH5O0jtP/YHdz/7fXD5cLv8fD8fL4vXP/vLwj1p/PlIn/+Cw==);lineShape=1;strokeColor=#33FF33;" vertex="1" parent="1">
                    <mxGeometry x="210.97976295206" y="241.7490020679379" width="79.7397626969564" height="67.27884420362557" as="geometry"/>
                </mxCell>
                <mxCell id="14" value="" style="shape=stencil(lVfZbttADPwavRK75J7PafofAeLURt04cNzr70tBWNWkrQnyJssc8RhyljvJw/v+6W03cXi/nE/fd78Pz5f9JF8m5sPrfnc+XPRpksdJHl5O59238+nn6/Py++1ptpyffpx+zV/4s+AiCc8gDn+XF60SL2++LvbHw+uVfacgxr4WSnXbngNJNoDcSdI2QCKFagCJKQFACpSKAXChKgDQxt8DENPI6i5AIy42hwgdNCEJxj5QCKCmQqHb72tODQASJZuBeuigRgpolmYtMyMP2YeUNOcOAIXY8ZwoI0CnbmkrWuYCAdVWtQrlCACVigPUkdUWD822XlPiMiC6UbceGo/u3eoMZg/ooJU04hQ9IIMqVfbEaQ4dMF0qNeuhNhLgoeQbCUjYg06XTbpGioAHBXQbkgYpCFBHq60AoQ540ABqs4A4ZnaLh3AjYwW1BlNLHoCS1l7KxQNQWbVbfdIR9lK/6SUtdEOqoSla4kqjBKoUwyp0K9VMjFxo1g6QqYO6qjCxndGqdUWyEYaqrAMRKYMTrmWKlmrlsgIiNAB/hvKQ2/sAoVp9SAUwp8rohnr2iQDZe9BjOoKB0E5wSStx6Aj6NEC7uVlAKtRQDsEvAlKg9CmAbZV0EWAkG9HvJjHDE2VWATtBzOOMue+h+U1AEgnwkCt120s5UAQALWJ0KlApgpBEbuYhwRHl7HcH3SbQssGq99aDLgcVEKfrVLE5qCwwEIHYfC91PA/Kq9sd5vUDjGhkv2FdadvGYsziPcBuHfvXVc5IA1QzXMq6qIPvr+vaaq+9Db4fRuev9nq+AJZvlL7Hcbxs2Dvdbv2D+D93MfnYXh/+34JeDsfjcom6/t/fmvTVcuOSx38=);lineShape=1;strokeColor=#33FF33;" vertex="1" parent="1">
                    <mxGeometry x="222.99394934563009" y="237.93486883888124" width="16.260261592699294" height="24.665020789328764" as="geometry"/>
                </mxCell>
                <mxCell id="15" value="" style="shape=stencil(lVjZbttADPwavxJ7H89p+h8B4jRG0zhw3OvvO6qxikhZY+TNx1ArkkNyuLt49/788LbfBfd+Ph2/738fHs/Pu/hlF8Lh9Xl/OpzxaRfvd/Hu6Xjafzsdf74+Xr6/PUzI6dOP46/pCX8udl5ynoyC+3v5oTvp8f8vXy/4l8PrAh8lRosvfhufJXeFb12K28ZX6UHjm/i+jfdOYtEGhRvAA6cNotREDIpUY+CkkhD5JkX7XBuNaXDStNO1SKvEIIrXWahJMjNAGpo2COKJ06GJq8qgdEmN8AI00CeUIokQI0ZJOnElSCeJi3iejlLukgmVIv722iCPQF81SEGKOSGII6+UsnR9QmoSCjGY33g2SNQgr6KUnDjiQ66SNTUQN0fyULwUfUIMo8avG2Sb6TAT/roBmKO5BDoGwtYaJeimhDbVMzFAuWgD1GAn1EAFBx0lVLkjTqNHWAP0EeJ0A9WMARoryTT6nNNhRVRJhaLveu1zoS2gg8pJM0kqiWnPtgPMD7iObxJ1LYCoJAXAN2fx7P37KJQPPPW3j/DNCZDE/O3SuvG3kELzbvZvLhyaYBzQdcKyRHIA8FU7gATz5yedgDpm+1YCuk4wehdPWDKjXBIpGeBNfPB80oh6He4t3p8luEoINj6kIoF33safxaeMdC7ye+P5Gg8CsefXkf4FQcmEBd7ICsf9bbZBuNFhtvCmYG4UcBdvCz5yfmbrr+f8N6oocP6gvnQDjVQerPGJiq7pfXRHh9DkeDOJKx31Uzy1v42OpClf2eATr9/P4THBdH4RMDYAgsV7L5UR1Fn1hJnqCUMxIg0jfKInYBUw6mkS84RzGPNmKEFIsCk5rQJGDIHVbL+pI+izAc4kTkMM2TIodM5UZwc3tDkVdEWCbizQ5o1JRhSiqbRKR1NuVj0lL5FwKUMVG7GSx/S5bgAXtdOpU8mY5g1rngZpeHXdIFqdDK8S0/rObhOIW2YbUbW7MjJT2C6exh46dxhHXyl62/KwNzJqoOTNjAJ/O/EB3KxGJDiaBzTdaAzi2C+uGwRLb1R5JBXnV8IOfaSQxu2rNZjuONjCnwaZZwMUEMkDGqNZZSE22Dq+Gs290Vle7P3ApJ7Zqmyl3TTsSNbQ2E3ndlwseMujafqSRuzGqFngM3F4voRa4Nn7uNU1VhtqcgNvA1ppt5iX9EWCA6HQapfA9PUcrwu5p6E+N/BhxVC2bbkVIcKN+Ji52T1dPvyQTgs8E4Ofvaa8jceHjzvRp8PLy+VKdfm/vUPFT5f713j/Dw==);lineShape=1;strokeColor=#33FF33;" vertex="1" parent="1">
                    <mxGeometry x="323.7826660844156" y="173.62955056954058" width="135.9034566778588" height="48.991292325529" as="geometry"/>
                </mxCell>
                <mxCell id="16" value="" style="shape=stencil(lVdJchsxDHzNXFEkuIA8O84/XGU5UkWxXLKy/T5gpigNOFLbus3CJrZugJzCw/v26W0zsXs/HQ/fN793z6ftFL5MzLvX7ea4O+nTFB6n8PByOG6+HQ8/X5/n97entrI9/Tj8ajv8mXE1kpOGYvd3/uKZhP9/+ToD9rvXBaAEisEA2JFPtwESqUYLyMT1NiALuWoAgcmF24DkSZIBxEAMXNLfaQAUygAQPLENOgl5uQ1gJm+Dzpq3CCyoS7YOOZIAQHJUnQVUqiCG7EiKAQhTBWmVugKU/uUqoGoMFqBk8SCGmillC4i9lNcB6oCtQ1GyIAuVik1r0ajyPYDKlEGWmktsAYnCB0FbalTBFlbUUCcZAVSQlhreOXIOiFp94tFEAUG0wtpSV8yN4jr9z4BMFfQZ5Vq2QWiriqByIlQsN6qHolYLbIMuhQrIUhPEwD7tZCit3H8v+O1Rc1XqDApinNbSJbwABGBB2RzlHgvK5hxXMWBBeL/KkoeSy+s6gBgWbF6WGrTjJpiB37Hn4TpAKAyay7BZ6n55YJ8KAkw59ZjtlGuSA3TVTid3qjoSx9EEahx3A7KSbSiEUh6IVCdvHGqdoeY4du6cAR6ySbNuC6fnD9TwV1TSuZtAyHGsQgqUwf4+dLWczxoC2d0itsSIDhIjlD73z+clD6mX4jiyNAsFnciYii2CxzNO/NhlatfT9aJ5qrbv+d7Mb40fsTlyeH3q0+yyHpKokONhPVKaTtyh0eP9Lyr5nP/tlJ7vyI827WGef3wQs/nRdoaal4z+ZIooPzLeMgq8M1w5I0EJrOP1Hju0Tii+9nzinqQPl1vWy26/ny9py//jrUw/zTe68PgP);lineShape=1;strokeColor=#33FF33;" vertex="1" parent="1">
                    <mxGeometry x="327.33418628036634" y="156.62059290548927" width="23.931733609992534" height="29.96347307840415" as="geometry"/>
                </mxCell>
                <mxCell id="17" value="" style="shape=stencil(nVfLctswDPwaXTF8P85p+h+ZiVN76toZx2mbv8+qGqoGba2r3mQaSxDAYgkO/uFt+/S6GZx5O5+O3ze/ds/n7eC/DM7tDtvNaXfG1+AfB//wcjxtvp2O74fn6ffr02g5fv04/hx3+D3hnJg4gpz5mBYSVvyfla+T/X53uLC3TmxSgOhl/LkEcEZqVYAQJZhlgHdSggL4IJ4cKQQpVgEQVU3LgBjbfg1gvcS6DEhejPaQpJITFSs5K3sjhoRckzhtn8VmYl+k6JzaO4AqQUfsqvjIAZoXwUkiIQMQjebFXJYlQNJHSlEiBxTtIUcxgVDVzFlviGraHksunCZ39ZKJi4q0a2KglL4QAPYrGlBaaW5TCWlyGoAV4qEgKZpLF3m4jTCN/BcuPOmfnCR1acpSiAZkRN0VArUm9MvuqnKuJe42AB2n+YrEMfrBQ9WFKOhpUuo8n3gGBAmk5zLIpGMoaCECKBAhLXyjjpC0liLWrwEgiSGvORLYbN2aoMHmVNekFVSrnQdeuJH+OoaRGkS8wc3aATj58HdPPk7vavuWu9NAyEnSHu72qGtS948ykHHkVUKTg8SuqbmUoYNCp31cLNGjfeW4HP8PoFNXNKFnPWrboDADIIZMyTD+6MolI44rWacCobSBaNFDN/4kes1dx+B8u4uXAEEDMP4EEgOulG6csYHHEHoPOBKrAwasolXAWykEEE3f1AEzGjmSL/3Vjrk1E50ZByTNpWRpA9mrCQhcYjMWZrasGwiViaTjbGzcnAGOjkyoq+noPa8sjEx94TKf7q9UZrxXWd36Cwj2nuw/0+YiRcze9oMGamCIvekv9QSVJDS6mihTaq+VJXt9fgy5ltp3nYbOYBVe+3y7b4+Pv2/Fl91+Pz01L//v35ZYmt6l/vET);lineShape=1;strokeColor=#33FF33;" vertex="1" parent="1">
                    <mxGeometry x="361.41867208611416" y="152.58459268519766" width="20.249860423003838" height="31.14676107480068" as="geometry"/>
                </mxCell>
                <mxCell id="18" value="Valeur Pente" style="text;html=1;strokeColor=none;fillColor=none;align=center;verticalAlign=middle;whiteSpace=wrap;rounded=0;fontColor=#33FF33;fontSize=16;fontStyle=1" vertex="1" parent="1">
                    <mxGeometry x="321.67" y="60" width="60" height="30" as="geometry"/>
                </mxCell>
                <mxCell id="19" value="" style="shape=stencil(lVbRbtswDPwavxKUKInSc9f9R4GmS7AsKdJ0W/++NDy5prrcMCAPjq2TyOMdxUnuXvYPz7sp8sv1cv6++3V4vO4n+TLFeDjtd5fD1Z4muZ/k7ul82X27nF9Pj8v/54d55fz04/xz3uH3gguZDDL/+O3PG8rLi6/L+uPhtFkfC3Hy65lyvQ1ITNo8oJCW24CcqRQHiEzCtwEa+n4rIJKAE2qlIB5QqIGkm+3nSRKmGAAgUwseYCc0AKid9Q5IBdahNarqAFmpCgb4pEsjRYBK4gtXmRqg1ZJWn0NjWAejlasHGEsgpGop+koHZmKgjSqU2R/RKCYgpkbJ89oSpEkLBQ+olgQ6QahlB7AtCnCQAdhnXXI34S1AHrQhFFEOmZIPKUVKQK5aKfnKicCk6+rI1XK1E/13gHHiczCPFiQmE6eOJyjyaKI6eDSRgDo0JfVJJ6EAxGdS+1wHxNJGzZtSK4qpEXvPqZIAXs1h6tuAmSqjJKTvtxoiUwC81ta79cZyCXk0dVI2ANSOZ0D+H4DyyNJsalAIq1MYOpO1MuAg0dGj1nmQXIM1fA+YrzHUBagNyggkKIWu5VV7lRhYWsY5YO4ZIB4bE3zRksIrkT+1GO4n3lg/OEEitDOP8RsDAXmti3i9ShRqKFLx8YQAfZOo+P0LbsGjQq0Bo8uZ1Edj8gTkhLWdf6xH1+Y8FfougafCf0+R9vAxgj4djsdlgt1+H0dWe7WMu3L/Dg==);lineShape=1;strokeColor=#FF0000;fontSize=16;fontColor=#33FF33;" vertex="1" parent="1">
                    <mxGeometry x="86.96999349447742" y="326.97532973634145" width="19.284010355580904" height="7.0782814047552165" as="geometry"/>
                </mxCell>
                <mxCell id="20" value="" style="shape=stencil(lVjLchw3DPyavaIIgs+z4vyHqyxFW1Ekl6wk9t8b9BZHA1DTU77N7qKXQzy6AVzk7tvj56/3lxi+vb2+/H3///XL2+NF/rjEeH1+vH+9vunTRT5d5O7h5fX+r9eXf5+/3D5//Twsx9M/L/+Nf/h+w+VMqQ1UDD9u3zBJ+fXFnzf7p+vz3r4TW3uhWo/tS6bOxr4SZ2DfqQRj3ynIsX0VStaemUIDgEpSLUAo8DGgBerJAhK1DgCbRzZAoQru3OoSg049AMD28wTESBl4qYcFkClEAIjUogVUyuCVuv6f9ZIEYpAYXeNgE0MiVRC43il1C9hy90MAh0DB3loaFRA5PcLdOkUKIHIKyPadklAD5aMAyRaQqSK/ar0VC9BAoMgtBZoDNXxCsidkoYIDUcUCCs4NTVfrVmURRDIDYHOjREo4DtHGQXmnoIKo84obQIsQpWueJLEB1G8JAJiiZYHKlAGgFeo2NZTbGiImpmoDVwtFcEJVnzgubjPhj8g42lfSMwUUUBHK9gQlww4Cl9sslw1QSMAdhl7ZXGptnvkxQIhttioZosBpuSR76S5ngGLvoMmC2DhtVLoB9A6g4lKaFbwBtMpB4GSpuMFUoOJEZkHuAIjIVD+adeuObj+m40a8XALlBqtoNQ+o4NaZonh7lEtMSXwYGrBf5ETtIxKg2Yhs9hW+f6KcvX0Eqa0OCi5oBTIG1yn6O0AGIdBXquwBSHNVw0WWEwBjaKaGutwBELHWgo+ydhIg77TaYvEAxHoKcJykcUaspxLeFwDK7LQw9xBhVM959i37UgBxiM23xaPYEEBJLC0AcGntmtdqg2Li5W3cGb3RQsMdtqyB4lKdSNE3FdilBWq6f9de5uk7VUhospqasZMd1EBr9btBRoUNiQIvHK/SyUCnBl1YAmua6QAwZkcnzjKb9iMVcbOVTlsN8UuYk9SuhRFcOcG6Vbugigip+Ti8j5hHxexkRBs9FAdlMCeE2mcxoG0lJMfz5bzBsKlx0j8PgJsBcIeuABeHkxkgNS89J1OGAsR66WSOGQCrVSeTUmq+MzyZxYYwWLeeTHsKcCycAuxIUvFKIpUYAbKfYyRNBT5KPhcHYTgTp4WHx0YGZSv7iVWpX5CiL32ScieMNHvpeW/ljpoMN7EyXgRI8YMPZ0wzMju13VYJqlv3kxIznGNGw+3oHsqb6qcf9iBnKNk3G4WExUG8PcPmVu3dCornKuRj++yrM+B+pPr10DaWHTU8LTt7QQHLvnDwfkvDU5OzD6CStW5dT4jHqZHT1dsjik9+yRjmouiIHYv3P2qCM3vqUv8D/+TkVzYM7/vbi+pTe31434o/XJ+ebkv1/e9+i65f3Tbw8ukn);lineShape=1;strokeColor=#FF0000;fontSize=16;fontColor=#33FF33;" vertex="1" parent="1">
                    <mxGeometry x="92.8487545870646" y="332.6555485307774" width="10.240315172233636" height="139.26376493097814" as="geometry"/>
                </mxCell>
                <mxCell id="21" value="" style="shape=stencil(rVfbbtswDP0avxKiqAv13LX/UaDpYjRLijTt1r8vPSNuJNUnK7A3Rz6UycPDSwa5edneP28G715Ox8PT5vf4cNoO8mPwftxvN8fxZE+D3A5y83g4bn4eD6/7h/n38/2EnJ5+Hd6mG/7MdpkKT0bevc8H7Mi5vyd3M3437i/wnIilMijEcR1vHxBX4TMxr+PFXocKH0nCOj7Y/b7CC2lax8dMIVZ4T7Gs41MmrzVBFHQdnxP5VOEdxBeju8Uj/ouQD43/yQN8Itf478ijD2ibMIu4gAyUQqlmVBIlARJyS4hLjj1lIAr7hNQqTUoRGeTWJ/UkGRhE4lLL2pOiqP2ZxcVASUHUqlTqRFhUKGiNpI2BlQKQkpo0apY0nXP5tQG3Ws1CAbnkWvFFPcvrHw2CiemKS7lWX6IIEjcFXdc/CyVQ0D2tARbQlLdaGRYTuL8XBhN/S3nWAUED66XNdoLrsykeYYqoxff1OXVZXJ+NT0lIEEldk8kmJMRS18a0kCKXuj5pxEGXukZ8wcN/suiHgzEXgfj66WPMIYN+vFnYqKT7+WlUM5BTP6CLFRAQbL8BTK0VZOKLFcORgh2j22EKTkNq5W01jnp9aCvaekgASVgm8iLuAicok9Q5yzYOwf22UdQqSoEYdOF+3AZSeH9b/vHK/Y0/EmFtdvH6ReZrfNZ68EvlreWr2WkDRXB/pwdm2IK/uzNfx9vD54L+OO52835/+b5d6O1o/jMgtx8=);lineShape=1;strokeColor=#FF0000;fontSize=16;fontColor=#33FF33;" vertex="1" parent="1">
                    <mxGeometry x="78.9889469530151" y="465.6159038389667" width="27.96849468113851" height="5.568241150191625" as="geometry"/>
                </mxCell>
                <mxCell id="22" value="" style="shape=stencil(nVbLctswDPwaXTEEQBLkOUn/IzNxak1dO+O4efx94WrohKgCWbnpgSWJxWLBgW+et/dPm4HC8+l4+LV5HR9O24FvB6Jxv90cx5M+DXw38M3j4bj5eTz82T9M70/358jz0+/Dy3mFtwlXCSifURTepy8Cwv8+/Jjid+O+j6+pi8cMOTiACFU6AAdAcgAZYu0AMQKKAxDI1AFSgeQBSkvxkjO2Q84CMAQIoUPUAMXLWoBLD2CQ+DWg1LbeBZCBnTNJgdAXTtOKTuUyt/UugAq5fA2IAtQX4hMPswhGWzrdgrNDrJaur4QSVxxxCKBJOkFKzgZNOZd4AnFyDjblj7rMc2SlVzJUpwioKujLXCJEhyHKkMyJCLKTcVQpmyNh23MWoM2CYQ1AuOnsyiMpJ4xrktaimu5ZoFVlJmYHv27aK8UIzxeG/i5xjfKUEzZS9aWd1bSMA/jNk5T1lf2pVo12C88CtH+qoUlNxkkC1duNA/g2Rv+dyPfJOSOWui7eEwYC9YaxMBrIKnVh9jCkPt+F4ZYg9AVYmJ4CYdV4lsb2deO/2GGeoHiDkyD19Gi26MQXO6PIZVPd0ZQXgR12WOnszTFA9MxULy9o4r0GS8l6qR+fdf264jwSIeCKfNXJzXz1+SzSuvu6elW08vT18I3b5kK8PnxcbR/H3W66GX/+b6/C+mm6RvPdXw==);lineShape=1;strokeColor=#FF0000;fontSize=16;fontColor=#33FF33;" vertex="1" parent="1">
                    <mxGeometry x="112.97132275972194" y="466.1945493266214" width="5.257397205165489" height="28.519650574366096" as="geometry"/>
                </mxCell>
                <mxCell id="23" value="" style="shape=stencil(lVjZUhtBDPwav6rmPp4J+Q+qMMEVgikg19+nN65ZPJLd2G/rtXpHI7Vao9nEm7fHu5ftJri399f99+3v3f374yZ+2YSwe37cvu7e8bSJt5t487B/3X573f98vj/8frlbLJenH/tfyxf+HHBeel9Awf09vIhJvP//5uvB/mn3fGSfJJfZPkoj9lWam+2D+HTe3nuJdQY46ZEAsiSvAYGt0KUFDXBkhQCPuwZ4RwBJijMusRWKyYKTSKIa+okoxXIeEL0UuwKJUszS50RjzV4JMRDEqgGZuJRApTlKoUntBNCGAyugjNyfBOQoXgGipEwAdeR1BSBxZNPFSZq55Ktk4lKJkmeX/EqW0wDjEiokkyhVJzlNgEY9qqjf2T5LbMS+mPIZTDlt38U3Ze+JfQuDyGsOJJCcNdT/7L+n+21ValT2zJ/uxeXJ3kkh8elJ1wEoRBLc65CGD3vH7Jv4oOMTqH2f9bFJYftF1ar4AEDEC4Cu1M5TefRu3eFAQAsq96nNe8htlPY5QJxJUeAlkbu+BmUAaht1cS5tbQ5TQx2wPJTRxlZA4okomkgNnZAxD4U7r4DaZuoFqta5KZRAm0I3kp0QaLZpA0Bfybx6lEugN+sidtPQR0pXE9Zr8+aoHlliuNHcL2QeHGQRQsRnPUIHobQwxYMVKtnBqfp0n5WbkgC03saCakSmFAk8SkrF0IcC44WRSTSWwlYwOoz67KSRXA8wnQGAygCm9QDAzpG2t0GUWKrxvdg0wBMyNa+FdenX7LjQxM30xicy0Zi6CsQRgKlYDZKqdomRD63Aq46YKZdK1kPPEmiyh7LOOCsARUjIl7u4GdAd7YjZTD090GNYRuLmEu2ZHp5T0RUHwrMVkpl6UOXsZGUnhiPluXAoWYSExNWOPQCw05IdrBYAm/XM6LYASMnZ4XBR9KvGTwDYFGMH3A+5vXCE7ryt2yG98zOiuQUAlxJZwNwygKy0ZZkkZB6iMSKs9omeMrwWMUgzO0463dM/EQx3QlUZ65xublDNQvZrGnppQzQvtPf0UGL8Qf/v1H+131THqeayeCZPJd7kK1Yp1F7xAUrDhOjaW7PP7fHwcUX3sHt6OtzwHf+vr/Tw6nAdGG//AQ==);lineShape=1;strokeColor=#FF0000;fontSize=16;fontColor=#33FF33;" vertex="1" parent="1">
                    <mxGeometry x="117.41782762978187" y="474.95723182804113" width="109.82000146231837" height="7.167125882533583" as="geometry"/>
                </mxCell>
                <mxCell id="24" value="" style="shape=stencil(lVbLctswDPwaXXcIgs9zmv5HZmLXmrp2xnGa5O8DVaPaRGIovFEUlsRjF+DAd8+7h6fN4N3z+XT8vXkdH8+7gX8M3o+H3eY0nmU18P3Ad9vjafPrdHw5PM7fTw+T5bT6c/w7nfA24yrD+Qnl3fu8k5Hzv42fs/1+PFzZl4qUGnsf4P1tQCW42ACYwRaAkVpAqMjRACR9Q5IjigEo8NTGHJDTbQA5B+caRHWoZFyRwaUFMIoRteS1qBsSggHIBa4thIQVjDRJUji3gGqmKWT42gCu8vAlggmh6ivYYBNlJG4BGcUIIoNU0BHJ8IhAKmaPYjjkdMhSl8pGjpBa9ZQMVw1/GLktcwmLoL4E+ISoPJIIrKoRqnJJdsJtQCwg1wPIjMA9LpUEpp6gpahKPZJWMsosNMvqBrtuopWiiGcTY/odPjHP6ACSE1ZUtamdCqLqALZ4okfq1GdaXP5mCxD9VJUmaTIGN8iBVAew25j/5JHdJ3sbca89Ibf+r4wGRu2aPSKFruFW9Pkr01MKwC1PV+ZzQm2ltjL/4VtCRFSr/9KS7f/xggxdykBQY9AjWgSNiK3KCGycz2HJ9mLvzKEZwsLGi72lsBg1/237FOFThz/CxhA64pUu5HvyWcoyvr5XL3nd5XbA2nzofW6u28vi8rbdjvv9/DS+/q/fwrI1v6P5/gM=);lineShape=1;strokeColor=#FF0000;fontSize=16;fontColor=#33FF33;" vertex="1" parent="1">
                    <mxGeometry x="213.89141014108634" y="462.2574212706211" width="5.017228545952321" height="27.57224248899206" as="geometry"/>
                </mxCell>
            </root>
        </mxGraphModel>
    </diagram>
</mxfile>